<svg width="40" height="63" viewBox="0 0 40 63" fill="none" xmlns="http://www.w3.org/2000/svg">
<g id="Emoji">
<path id="Vector" d="M3.30127 6.03069L6.95859 56.0207H32.9736L36.9468 5.99438L3.30127 6.03069Z" fill="#C6E7FF"/>
<path id="Vector_2" d="M32.7057 54.9614L7.12445 55.2463L5.27673 27.4543H34.764L32.7057 54.9614Z" fill="#55ACEE"/>
<path id="Vector_3" d="M30.7197 62.0292H9.28034C6.17298 62.0292 3.9913 59.9365 3.59017 56.5641L0.00545979 6.25834C-0.0780323 5.084 0.805895 4.06395 1.98204 3.98045C3.17816 3.89878 4.17643 4.7827 4.25993 5.95522L7.83375 56.1594C8.02796 57.7639 8.87377 57.7639 9.28034 57.7639H30.7197C31.6562 57.7639 32.0047 57.7639 32.1717 56.0995L35.7401 5.95522C35.8236 4.7827 36.8291 3.90241 38.018 3.98045C39.1923 4.06395 40.078 5.084 39.9946 6.25834L36.4207 56.4607C35.9633 61.0727 33.0683 62.0292 30.7197 62.0292Z" fill="#2B5677"/>
<path id="Vector_4" d="M19.9993 58.0815H15.2312C5.19036 58.0815 4.0378 53.2099 3.50599 46.3309C2.91066 38.6514 0.324219 6.22927 0.324219 6.22927L3.94161 5.94067C3.94161 5.94067 6.53167 38.3719 7.1252 46.0514C7.60618 52.2933 8.13436 54.4514 15.2312 54.4514H19.9993C21.0012 54.4514 21.8144 55.2627 21.8144 56.2665C21.8144 57.2702 21.0012 58.0815 19.9993 58.0815Z" fill="#2B5677"/>
<path id="Vector_5" d="M24.7671 58.0815H19.999C18.9971 58.0815 18.184 57.2702 18.184 56.2665C18.184 55.2627 18.9971 54.4514 19.999 54.4514H24.7671C31.864 54.4514 32.3903 52.2933 32.8731 46.0514C33.4685 38.3701 36.0567 5.94067 36.0567 5.94067L39.6759 6.22927C39.6759 6.22927 37.0877 38.6532 36.4923 46.3309C35.9605 53.2099 34.8098 58.0815 24.7671 58.0815Z" fill="#2B5677"/>
<path id="Vector_6" d="M39.9647 5.59579C39.9647 8.68681 35.0096 11.1916 19.9992 11.1916C4.99058 11.1916 0.0336914 8.68681 0.0336914 5.59579C0.0336914 2.50476 4.98877 0 19.9992 0C35.0096 0 39.9647 2.50476 39.9647 5.59579Z" fill="#55ACEE"/>
<path id="Vector_7" d="M39.116 5.67737C38.5588 4.84427 37.4335 4.6192 36.5985 5.17642C32.8124 7.70478 23.3959 8.02786 20.0871 7.94074C20.0689 7.93892 20.0526 7.94981 20.0344 7.948C20.0181 7.948 20.0054 7.94074 19.9891 7.94074C16.6875 8.02967 7.26921 7.71022 3.47758 5.17642C2.64266 4.62102 1.51733 4.84427 0.960113 5.67737C0.402894 6.51048 0.627959 7.63762 1.46106 8.19484C6.12573 11.3113 15.8308 11.5817 19.0452 11.5817C19.5698 11.5817 19.911 11.5745 20.0381 11.5708C20.1669 11.5745 20.5063 11.5817 21.0309 11.5817C24.2453 11.5817 33.9504 11.3131 38.6151 8.19484C39.45 7.63762 39.675 6.51048 39.116 5.67737Z" fill="#88C9F9"/>
<path id="Vector_8" d="M19.9829 29.9918C27.8288 29.9918 34.1892 28.8021 34.1892 27.3346C34.1892 25.867 27.8288 24.6774 19.9829 24.6774C12.1369 24.6774 5.77649 25.867 5.77649 27.3346C5.77649 28.8021 12.1369 29.9918 19.9829 29.9918Z" fill="#88C9F9"/>
<path id="Vector_9" d="M7.36987 55.4351H33.0836V58.762H7.36987V55.4351Z" fill="#2B5677"/>
</g>
</svg>
