<svg width="25" height="24" viewBox="0 0 25 24" fill="none" xmlns="http://www.w3.org/2000/svg">
<g id="Icon">
<path id="Vector (Stroke)" fill-rule="evenodd" clip-rule="evenodd" d="M6.84309 17.6568C6.45257 17.2663 6.45257 16.6331 6.84309 16.2426L16.7426 6.34311C17.1331 5.95258 17.7663 5.95258 18.1568 6.34311C18.5473 6.73363 18.5473 7.36679 18.1568 7.75732L8.25731 17.6568C7.86678 18.0473 7.23362 18.0473 6.84309 17.6568Z" fill="#FBF9FE"/>
<path id="Vector (Stroke)_2" fill-rule="evenodd" clip-rule="evenodd" d="M6.84309 6.34319C7.23362 5.95266 7.86678 5.95266 8.25731 6.34319L18.1568 16.2427C18.5473 16.6332 18.5473 17.2664 18.1568 17.6569C17.7663 18.0474 17.1331 18.0474 16.7426 17.6569L6.84309 7.7574C6.45257 7.36688 6.45257 6.73371 6.84309 6.34319Z" fill="#FBF9FE"/>
</g>
</svg>
